<?xml version="1.0" encoding="UTF-8"?>
<svg width="434px" height="376px" viewBox="0 0 434 376" version="1.1" xmlns="http://www.w3.org/2000/svg" xmlns:xlink="http://www.w3.org/1999/xlink">
    <!-- Generator: Sketch 50.2 (55047) - http://www.bohemiancoding.com/sketch -->
    <title>illustration</title>
    <desc>Created with Sketch.</desc>
    <defs>
        <path d="M3.49352332,3.35136785 C-0.439507772,6.61270566 -0.973678756,12.4421501 2.29445596,16.3674593 C5.56259067,20.2927686 10.005,26.4868347 15.3309326,17.5648587 C17.9476943,13.1781456 19.8003886,8.47407652 16.53,4.54651649 C14.6998446,2.34978377 12.0627979,1.21315465 9.40772021,1.21315465 C7.32062176,1.21315465 5.22225389,1.91538888 3.49352332,3.35136785" id="path-1"></path>
        <polygon id="path-3" points="1.21845078 0.696157203 20.8159911 0.696157203 20.8159911 6.75225221 1.21845078 6.75225221"></polygon>
        <path d="M0.84746114,8.1049534 C6.66133815e-16,13.1848978 3.44393782,17.9857491 8.53321244,18.8275299 C13.6179793,19.6738122 20.8078756,22.7573407 19.2707254,11.1524699 C18.5968135,6.04551648 16.6719948,1.26942341 11.5849741,0.42989339 C11.0665803,0.344364863 10.5526943,0.301600599 10.0433161,0.301600599 C5.56033679,0.301600599 1.60251295,3.54043091 0.84746114,8.1049534" id="path-5"></path>
    </defs>
    <g id="Industry" stroke="none" stroke-width="1" fill="none" fill-rule="evenodd">
        <g id="illustration" transform="translate(0.000000, -2.000000)">
            <path d="M390.248642,334.035059 L66.994057,334.035059 C53.3738238,334.035059 42.3342902,323.010882 42.3342902,309.411846 L42.3342902,296.445271 L414.908409,296.445271 L414.908409,309.411846 C414.908409,323.010882 403.868876,334.035059 390.248642,334.035059" id="Fill-1" fill="#C1DDF7"></path>
            <polygon id="Fill-3" fill="#71ADDB" points="191.131788 366.927305 267.59487 366.927305 267.59487 334.034834 191.131788 334.034834"></polygon>
            <path d="M414.909311,297.053649 L42.3329378,297.053649 L42.3329378,102.395221 C42.3329378,89.8247781 52.5385337,79.6333787 65.1287409,79.6333787 L392.115762,79.6333787 C404.705969,79.6333787 414.909311,89.8247781 414.909311,102.395221 L414.909311,297.053649 Z" id="Fill-5" fill="#214A81"></path>
            <polygon id="Fill-6" fill="#D7E8F7" points="57.4718394 283.631522 402.10228 283.631522 402.10228 95.2774468 57.4718394 95.2774468"></polygon>
            <path d="M237.037135,313.556153 C237.037135,318.199452 233.268637,321.960457 228.621124,321.960457 C223.973611,321.960457 220.205114,318.199452 220.205114,313.556153 C220.205114,308.915105 223.973611,305.154101 228.621124,305.154101 C233.268637,305.154101 237.037135,308.915105 237.037135,313.556153" id="Fill-7" fill="#FFFFFF"></path>
            <path d="M374.026749,264.690329 L218.319288,264.690329 C214.492189,264.690329 211.390842,261.591046 211.390842,257.769271 L211.390842,119.350351 C211.390842,115.528577 214.492189,112.429293 218.319288,112.429293 L374.026749,112.429293 C377.853847,112.429293 380.957448,115.528577 380.957448,119.350351 L380.957448,257.769271 C380.957448,261.591046 377.853847,264.690329 374.026749,264.690329" id="Fill-8" fill="#FFFFFF"></path>
            <path d="M187.020249,264.690329 L87.2677617,264.690329 C83.4406632,264.690329 80.3393161,261.591046 80.3393161,257.769271 L80.3393161,189.50175 C80.3393161,185.679975 83.4406632,182.580692 87.2677617,182.580692 L187.020249,182.580692 C190.845093,182.580692 193.948694,185.679975 193.948694,189.50175 L193.948694,257.769271 C193.948694,261.591046 190.845093,264.690329 187.020249,264.690329" id="Fill-9" fill="#FFFFFF"></path>
            <path d="M178.583728,240.677295 L95.6114223,240.677295 C94.3154378,240.677295 93.2651269,239.626194 93.2651269,238.332012 L93.2651269,238.106937 C93.2651269,236.812756 94.3154378,235.763906 95.6114223,235.763906 L178.583728,235.763906 C179.879712,235.763906 180.932277,236.812756 180.932277,238.106937 L180.932277,238.332012 C180.932277,239.626194 179.879712,240.677295 178.583728,240.677295" id="Fill-10" fill="#D7E8F7"></path>
            <path d="M142.904487,252.214418 L95.6134508,252.214418 C94.3152124,252.214418 93.2649016,251.163317 93.2649016,249.869136 L93.2649016,249.644061 C93.2649016,248.349879 94.3152124,247.298778 95.6134508,247.298778 L142.904487,247.298778 C144.200472,247.298778 145.253036,248.349879 145.253036,249.644061 L145.253036,249.869136 C145.253036,251.163317 144.200472,252.214418 142.904487,252.214418" id="Fill-11" fill="#D7E8F7"></path>
            <path d="M121.593769,207.652254 C121.593769,216.265877 114.599961,223.249957 105.974339,223.249957 C97.3509715,223.249957 90.3594171,216.265877 90.3594171,207.652254 C90.3594171,199.038631 97.3509715,192.054552 105.974339,192.054552 C114.599961,192.054552 121.593769,199.038631 121.593769,207.652254" id="Fill-12" fill="#D7E8F7"></path>
            <path d="M347.38514,230.148454 L311.273378,230.148454 C305.640917,230.148454 301.074544,225.590684 301.074544,219.966058 L301.074544,183.902278 C301.074544,178.279903 305.640917,173.722133 311.273378,173.722133 L347.38514,173.722133 C353.017601,173.722133 357.58172,178.279903 357.58172,183.902278 L357.58172,219.966058 C357.58172,225.590684 353.017601,230.148454 347.38514,230.148454" id="Fill-13" fill="#84B4FE"></path>
            <path d="M336.835376,206.305929 C337.516049,209.045093 340.42807,199.904794 340.987034,207.939974 C341.18763,210.809682 338.735402,213.1122 335.931567,213.069435 C333.125479,213.026671 331.948951,210.431556 330.826516,207.782422 C325.70794,195.684637 335.223847,199.835021 336.835376,206.305929" id="Fill-18" fill="#FFBDA1"></path>
            <path d="M395.240549,281.615824 L370.774617,281.615824 L369.832492,252.889492 C369.832492,248.077387 372.832415,244.172335 377.35371,244.172335 L388.656948,244.172335 C393.182751,244.172335 396.18042,248.077387 396.18042,252.889492 L395.240549,281.615824 Z" id="Fill-32" fill="#FFD474"></path>
            <g id="Group-50" transform="translate(335.000000, 208.747249)">
                <path d="M98.1231891,30.4759097 C96.444044,28.5942821 93.6064016,35.0471844 90.5659093,30.590698 C89.0851062,28.4187235 88.5869974,35.4995853 90.2661425,37.381213 C91.9452876,39.2605898 94.8009611,39.2695928 96.6491477,37.399219 C98.4928264,35.5265944 99.8023342,32.3552866 98.1231891,30.4759097" id="Fill-19" fill="#FFBDA1"></path>
                <path d="M74.358215,50.7983882 L57.8958316,36.6389154 C55.8177487,35.3064709 53.2956503,36.0897322 52.2656244,38.3877487 C51.2355984,40.6880159 52.0853135,43.6297472 54.1656503,44.9621916 L70.6257798,59.1239152 C74.0111166,61.2913882 78.1402358,60.69719 80.6690959,57.6789332 L94.4606244,40.4786961 L89.4367124,36.4543538 L74.358215,50.7983882 Z" id="Fill-20" fill="#FFD474"></path>
                <polygon id="Fill-21" fill="#FFBDA1" points="36.4295959 162.208524 43.0582746 161.963192 42.9568497 150.315557 36.2154767 150.617158"></polygon>
                <path d="M25.6488083,167.644087 L43.1795337,167.44377 L43.0713472,159.773212 L32.9491451,162.208524 C29.1310622,162.249037 25.615,163.399171 25.6488083,167.644087" id="Fill-22" fill="#241C2B"></path>
                <polygon id="Fill-23" fill="#FFBDA1" points="65.9171865 162.208524 59.2885078 161.963192 57.8978601 150.315557 64.6437409 150.617158"></polygon>
                <path d="M76.6957202,167.644087 L59.7915751,167.439269 L59.0275078,159.773212 L70.3510311,162.847737 C74.169114,162.888251 76.7317824,163.399171 76.6957202,167.644087" id="Fill-24" fill="#241C2B"></path>
                <polygon id="Fill-25" fill="#03345F" points="35.9936943 71.7366722 47.506544 71.3090295 48.7056114 71.2640145 60.2184611 70.8363719 60.360456 87.6584829 36.8682021 88.5340249"></polygon>
                <path d="M58.290487,155.867259 L67.4638031,155.806489 L61.9598135,112.493041 L60.2175596,70.8361468 L49.1149171,72.6502519 L50.620513,112.882421 C50.6069896,113.341574 50.6453057,113.805229 50.7354611,114.253129 L58.290487,155.867259 Z" id="Fill-26" fill="#03345F"></path>
                <path d="M35.2740285,155.390325 L44.0844689,155.46685 L42.6126813,114.210589 L48.1842876,72.9835881 L35.9930181,71.7366722 L31.289158,113.490349 C31.2463342,113.902236 31.2418264,114.320876 31.2823964,114.737265 L35.2740285,155.390325 Z" id="Fill-27" fill="#03345F"></path>
                <polygon id="Fill-28" fill="#FFBDA1" points="44.8113472 38.2839891 51.5910363 38.2839891 51.5910363 29.1932069 44.8113472 29.1932069"></polygon>
                <path d="M41.4523808,23.7236575 C41.4523808,24.9683227 40.4426399,25.9744082 39.1984948,25.9744082 C37.9543497,25.9744082 36.9468627,24.9683227 36.9468627,23.7236575 C36.9468627,22.4812431 37.9543497,21.4751575 39.1984948,21.4751575 C40.4426399,21.4751575 41.4523808,22.4812431 41.4523808,23.7236575" id="Fill-29" fill="#FFBDA1"></path>
                <path d="M59.5628057,23.7236575 C59.5628057,24.9683227 58.5530648,25.9744082 57.3089197,25.9744082 C56.0647746,25.9744082 55.0550337,24.9683227 55.0550337,23.7236575 C55.0550337,22.4812431 56.0647746,21.4751575 57.3089197,21.4751575 C58.5530648,21.4751575 59.5628057,22.4812431 59.5628057,23.7236575" id="Fill-30" fill="#FFBDA1"></path>
                <path d="M57.5068109,21.7848608 C57.1799974,26.8828112 53.2988057,31.7129223 48.2005155,32.1405649 C43.9294016,32.5006851 41.8580803,27.6368127 38.9843756,21.7848608 C35.3443497,14.3708879 42.3201269,8.32086991 47.4341943,8.32086991 C52.5505155,8.32086991 58.2911632,9.54077681 57.5068109,21.7848608" id="Fill-31" fill="#072042"></path>
                <path d="M36.2357617,45.9606246 L17.8710984,26.9507839 C17.780943,26.8607539 17.6975492,26.7639716 17.6164093,26.6671893 L0.117238342,4.42977204 L4.28241969,0.583239034 L25.1894663,20.1647704 L43.4211503,39.0395661 L36.2357617,45.9606246 Z" id="Fill-33" fill="#FFD474"></path>
            </g>
            <polygon id="Fill-34" fill="#FFBDA1" points="269.603984 107.66963 275.849503 106.611777 273.070461 95.2769966 266.507145 95.5673435"></polygon>
            <path d="M258.902534,112.144798 L275.966705,111.948983 L275.849503,106.612453 L265.468104,108.368038 C261.751446,108.408552 258.868725,108.01242 258.902534,112.144798" id="Fill-35" fill="#241C2B"></path>
            <polygon id="Fill-36" fill="#FFB398" points="239.224982 72.954501 245.677858 72.7159214 242.078402 62.940911 235.515085 63.2312578"></polygon>
            <path d="M229.21029,79.8078119 L246.274461,79.6119966 L246.170782,72.1462564 L235.881793,72.2565432 C232.165135,72.294806 229.176482,75.6754336 229.21029,79.8078119" id="Fill-37" fill="#0E0E0E"></path>
            <path d="M273.363466,34.7972987 L230.332275,48.2050208 L233.992585,39.5373797 L246.350642,68.0161288 L235.322378,68.664345 L221.84414,44.6308287 C220.383622,41.4977836 221.72243,37.7817942 224.830539,36.2872957 L225.502197,35.9654383 L266.117223,16.4446772 L273.363466,34.7972987 Z" id="Fill-38" fill="#052E47"></path>
            <path d="M192.24115,55.2672014 C190.607083,53.4373411 187.825788,53.4305888 186.02944,55.2514462 C184.233093,57.0723035 184.104622,60.0320407 185.736435,61.8641518 C187.372756,63.6940122 190.154052,63.7007644 191.950399,61.8799071 C193.746746,60.0590497 193.877472,57.0970618 192.24115,55.2672014" id="Fill-39" fill="#FAAAAB"></path>
            <path d="M195.060762,60.5555653 L189.613119,52.495627 L212.706435,36.9316856 L227.978767,11.5139576 L236.329415,16.5173765 L220.500373,42.8601631 C220.135244,43.4678658 219.639389,43.9922907 219.051124,44.3884228 L195.060762,60.5555653 Z" id="Fill-40" fill="#F7C869"></path>
            <polygon id="Fill-41" fill="#FFBDA1" points="222.204311 11.5117068 227.489674 11.5859816 229.209389 18.5250461 219.247212 16.9112578"></polygon>
            <path d="M204.298539,13.9382412 L205.808642,12.1759034 L208.141415,14.1588148 L206.507347,15.5137667 L204.880041,15.3652172 C204.179083,15.2999454 203.843254,14.4739199 204.298539,13.9382412" id="Fill-42" fill="#FFBDA1"></path>
            <path d="M207.397632,17.3650092 C210.665767,21.2903185 215.108176,27.4843845 220.434109,18.5624086 C223.05087,14.1779461 224.903565,9.47162635 221.633176,5.54631707 C218.365041,1.62100778 212.527477,1.08532911 208.596699,4.34891767 C204.665922,7.61250624 204.129497,13.4396999 207.397632,17.3650092" id="Fill-43" fill="#FFBDA1"></path>
            <g id="Group-47" transform="translate(205.103627, 0.998000)">
                <mask id="mask-2" fill="white">
                    <use xlink:href="#path-1"></use>
                </mask>
                <g id="Clip-46"></g>
                <path d="M1.42896373,1.35450179 C1.94510363,12.2301293 8.80818653,6.29264891 10.9899482,9.46620744 C15.5833679,16.1464356 20.9093005,16.2702269 20.9093005,16.2702269 L17.7470984,0.388929727 C17.7470984,0.388929727 1.23512953,-2.72385854 1.42896373,1.35450179" id="Fill-45" fill="#072042" mask="url(#mask-2)"></path>
            </g>
            <g id="Group-91" transform="translate(10.015544, 6.499501)">
                <path d="M206.087272,4.68674681 C207.00235,5.78511317 208.636417,5.93591347 209.736313,5.01985792 C210.83621,4.10605312 210.989474,2.47650959 210.074396,1.37589248 C209.157065,0.275275367 207.522997,0.126725818 206.420847,1.04053062 C205.320951,1.95433542 205.172194,3.58838045 206.087272,4.68674681" id="Fill-48" fill="#FFBDA1"></path>
                <path d="M248.354396,3.43848045 L248.548231,22.8129428 L220.890795,27.1186289 L215.618956,5.06127173 L217.872842,4.07094141 C222.092117,2.22307505 226.773438,1.69189788 231.303749,2.54718316 L235.635718,2.92530928 L248.354396,3.43848045 Z" id="Fill-50" fill="#FFD474"></path>
                <path d="M248.548005,22.8138431 L267.91114,24.12378 L267.915648,22.2466539 C267.94044,11.5623402 259.046606,3.00723661 248.354171,3.43938075 L248.548005,22.8138431 Z" id="Fill-52" fill="#03345F"></path>
                <path d="M267.910689,24.12378 L254.425689,52.5192513 L254.572192,48.8415246 L264.538876,94.0996204 L254.074083,94.2256624 L241.975223,52.0240861 C241.722788,51.1417918 241.704756,50.2482438 241.887321,49.4109645 L242.123979,48.3441087 L248.653487,18.6544557 L267.910689,24.12378 Z" id="Fill-54" fill="#03345F"></path>
                <path d="M101.42492,59.1898012 C98.2221477,58.5798478 96.1215259,55.489567 96.7345829,52.2912502 L99.7705674,36.4549681 C100.383624,33.2544005 103.475956,31.1589516 106.680982,31.7711558 L239.367251,57.1281136 C242.570023,57.7425685 244.670645,60.8305985 244.057588,64.0311661 L241.021604,79.8674483 C240.408547,83.065765 237.316215,85.161214 234.113443,84.5490098 L101.42492,59.1898012 Z" id="Fill-56" fill="#E5E7F5"></path>
                <path d="M231.573539,68.1342847 C231.111492,70.551591 228.762943,72.1428717 226.340016,71.6814678 C223.919342,71.2178132 222.323591,68.8725309 222.787891,66.4552246 C223.252192,64.0356676 225.600741,62.4443868 228.021415,62.9080415 C230.444342,63.3694454 232.037839,65.7147276 231.573539,68.1342847 Z M234.841674,77.1170309 L231.695249,72.0460894 C232.657658,71.1345354 233.363124,69.928133 233.631337,68.5259153 C234.31201,64.9764814 231.972477,61.5328328 228.415845,60.853106 C224.859212,60.1733793 221.410767,62.5096586 220.730093,66.0613432 C220.051674,69.6130279 222.388953,73.0566765 225.945585,73.7341525 C227.358772,74.0042426 228.74942,73.7949228 229.959756,73.2254828 L233.061104,78.2198987 L234.841674,77.1170309 Z" id="Fill-58" fill="#8CB8F2"></path>
                <path d="M209.694842,68.7034995 C205.38992,64.4405776 201.100775,67.7581842 203.483132,68.6877443 C207.416163,70.2205055 201.558313,73.4683388 203.190127,75.3004499 C204.826448,77.1303103 207.607744,77.1370625 209.404091,75.3162052 C211.200438,73.4953478 211.43935,70.4320761 209.694842,68.7034995" id="Fill-60" fill="#FFBDA1"></path>
                <path d="M212.569448,71.178425 L204.538852,65.679841 L222.234111,39.9132466 L217.582091,12.9447513 L227.176883,11.2927002 L232.166987,40.2080949 C232.38336,41.4572616 232.101624,42.7401895 231.382635,43.7845378 L212.569448,71.178425 Z" id="Fill-62" fill="#FFD474"></path>
                <g id="Group-51" transform="translate(0.000000, 228.000000)">
                    <path d="M54.6168912,127.159378 C54.5966062,126.621448 53.3614767,113.387034 53.3614767,113.387034 L60.2470984,112.011825 L61.5881606,125.772915 L54.6168912,127.159378 Z" id="Fill-66" fill="#FFBDA1"></path>
                    <path d="M74.4089404,126.203259 L55.2103394,130.130819 L54.031557,124.242855 L67.9583187,123.342555 C71.2174378,122.671831 73.7350285,122.950924 74.4089404,126.203259" id="Fill-68" fill="#0E0E0E"></path>
                    <path d="M28.9746554,52.6494002 L55.9852254,73.3428025 L56.8371943,73.9955202 C58.2977124,75.1141433 59.1339041,76.7684451 59.2849145,78.4655111 L61.054215,116.620238 L52.9988264,117.813135 L49.9944657,84.0549419 L17.9238523,70.6081403 L28.9746554,52.6494002 Z" id="Fill-70" fill="#052E47"></path>
                    <path d="M11.7051554,65.0418087 L34.9923057,56.7657982 C36.9374093,56.1670985 38.0260363,54.1054108 37.4219948,52.163013 L27.5364508,20.305887 L8.94189119,26.0588059 C2.2703886,28.1249951 -1.46430052,35.1991047 0.604766839,41.8613268 L11.7051554,65.0418087 Z" id="Fill-72" fill="#F7C869"></path>
                    <path d="M74.8536321,58.7775192 L42.7560415,66.8374576 C37.7501606,68.0956273 32.6721554,65.0616153 31.414487,60.0626979 L23.3433212,28.0120074 C22.083399,23.01309 25.1216373,17.9421486 30.1252642,16.6862297 L62.2228549,8.62629133 C67.2264819,7.36812167 72.304487,10.4021337 73.5644093,15.401051 L81.637829,47.4517415 C82.8954974,52.4484082 79.859513,57.5193496 74.8536321,58.7775192" id="Fill-74" fill="#84B4FE"></path>
                    <path d="M11.5334093,138.173652 C11.6596269,137.651478 13.5438756,124.583619 13.5438756,124.583619 L20.5466995,125.092288 L18.6241347,138.693575 L11.5334093,138.173652 Z" id="Fill-76" fill="#FFBDA1"></path>
                    <g id="Group-80" transform="translate(10.269430, 135.144141)">
                        <mask id="mask-4" fill="white">
                            <use xlink:href="#path-3"></use>
                        </mask>
                        <g id="Clip-79"></g>
                        <path d="M20.8159911,6.75292743 L1.21845078,6.70116017 L1.26127461,0.696157203 L14.9581399,2.92440043 C18.2871295,2.92665118 20.8182435,3.4285686 20.8159911,6.75292743" id="Fill-78" fill="#241C2B" mask="url(#mask-4)"></path>
                    </g>
                    <path d="M27.7683756,57.8785694 L31.1965363,85.1351608 L31.439956,86.5306262 C31.5594119,87.210353 31.5278575,87.9058349 31.3836088,88.5360451 L20.5469249,130.485537 L12.0272358,129.862079 L18.0794267,90.7006939 L18.0180648,90.5617208 L11.4908109,64.0456264 L27.7683756,57.8785694 Z" id="Fill-81" fill="#03345F"></path>
                    <path d="M61.0551166,44.0047168 C61.9476554,46.0686552 58.8485622,48.6952813 51.4332772,47.6621867 C48.9156865,47.3110696 47.4258679,44.6056672 48.0096244,42.1343429 C48.5911269,39.6607678 54.1717487,36.2531312 53.5451684,38.7132018 C52.4880959,42.8433294 60.0453756,41.6751898 61.0551166,44.0047168" id="Fill-83" fill="#FFBDA1"></path>
                    <polygon id="Fill-85" fill="#FFBDA1" points="50.2479585 40.7078171 41.0182953 45.7494987 43.9235544 50.0011669 54.7512228 45.0022495"></polygon>
                    <path d="M23.7294119,6.691546 L21.5160959,5.92404 L20.4928316,8.8387622 L22.6114845,9.18762857 L23.9525466,8.2310595 C24.5272876,7.81692137 24.4010699,6.92562408 23.7294119,6.691546" id="Fill-87" fill="#FFBDA1"></path>
                    <path d="M22.7787228,11.2524673 C24.3181269,22.8573381 17.1259767,19.7715588 12.038956,18.9275273 C6.95193523,18.0857465 3.50799741,13.2826445 4.35320466,8.20495079 C5.19615803,3.12275563 10.0059508,-0.316391491 15.0929715,0.527640035 C20.1822461,1.36942081 22.102557,6.14551387 22.7787228,11.2524673" id="Fill-89" fill="#FFBDA1"></path>
                </g>
            </g>
            <g id="Group-109" transform="translate(0.000000, 134.792293)" fill="#FFFFFF">
                <path d="M170.356142,5.12856918 L83.6446399,5.12856918 C82.3486554,5.12856918 81.2960907,4.07746858 81.2960907,2.78328691 L81.2960907,2.55821184 C81.2960907,1.26403016 82.3486554,0.215180322 83.6446399,0.215180322 L170.356142,0.215180322 C171.654381,0.215180322 172.704692,1.26403016 172.704692,2.55821184 L172.704692,2.78328691 C172.704692,4.07746858 171.654381,5.12856918 170.356142,5.12856918" id="Fill-103"></path>
                <path d="M170.356142,36.0653631 L83.6446399,36.0653631 C82.3486554,36.0653631 81.2960907,35.0142625 81.2960907,33.7200808 L81.2960907,33.4950058 C81.2960907,32.2008241 82.3486554,31.1497235 83.6446399,31.1497235 L170.356142,31.1497235 C171.654381,31.1497235 172.704692,32.2008241 172.704692,33.4950058 L172.704692,33.7200808 C172.704692,35.0142625 171.654381,36.0653631 170.356142,36.0653631" id="Fill-105"></path>
                <path d="M190.984383,20.5322571 L83.6453161,20.5322571 C82.3493316,20.5322571 81.2967668,19.4811565 81.2967668,18.1869748 L81.2967668,17.9618997 C81.2967668,16.667718 82.3493316,15.6166175 83.6453161,15.6166175 L190.984383,15.6166175 C192.280368,15.6166175 193.332933,16.667718 193.332933,17.9618997 L193.332933,18.1869748 C193.332933,19.4811565 192.280368,20.5322571 190.984383,20.5322571" id="Fill-107"></path>
            </g>
            <g id="Group-52" transform="translate(0.000000, 234.000000)">
                <g id="Group-94" transform="translate(13.523316, 0.598599)">
                    <mask id="mask-6" fill="white">
                        <use xlink:href="#path-5"></use>
                    </mask>
                    <g id="Clip-93"></g>
                    <path d="M12.892228,-2.60839503 C16.5863472,-1.69008873 13.7374352,8.17495175 8.47686528,9.08875655 C1.67689119,10.2704007 5.00362694,21.3575988 5.00362694,21.3575988 L-2.33727979,5.10492774 C-2.33727979,5.10492774 8.74958549,-3.63923886 12.892228,-2.60839503" id="Fill-92" fill="#072042" mask="url(#mask-6)"></path>
                </g>
                <path d="M22.0617124,10.8001263 C21.8273083,12.2226007 20.4794845,13.185922 19.0550285,12.9495932 C17.6283187,12.7132644 16.6636554,11.3673154 16.9025674,9.94484098 C17.1369715,8.52236651 18.4847953,7.56129595 19.9092513,7.79537402 C21.3359611,8.03170285 22.2961166,9.37540104 22.0617124,10.8001263" id="Fill-95" fill="#FFBDA1"></path>
                <path d="M15.6764534,17.029304 C13.8868679,21.1684346 9.07707513,23.0748205 4.93443264,21.2877244 C0.791790155,19.5006283 -1.1172513,14.6975262 0.672334197,10.5606464 C2.46191969,6.42151577 7.27171244,4.5151299 11.412101,6.30222599 C15.5569974,8.08932207 17.4660389,12.8924241 15.6764534,17.029304" id="Fill-97" fill="#072042"></path>
                <path d="M27.6195699,18.0250361 C27.6601399,18.5629655 28.5391554,30.9353423 28.5391554,30.9353423 L20.0758135,26.1322403 L20.3913575,18.2433589 L27.6195699,18.0250361 Z" id="Fill-99" fill="#FFBDA1"></path>
                <path d="M33.1970363,65.5653932 C31.4908446,65.6216619 29.8026839,64.8406514 28.7591347,63.3551559 L12.2967513,39.8798258 C10.6469067,37.530042 11.2171399,34.2889609 13.5701969,32.6436621 C15.9255078,30.9983634 19.1688497,31.570054 20.8164404,33.9175871 L33.3638238,57.2601229 L55.6119326,43.4810269 L58.3458964,49.2879638 L35.615456,64.8744127 C34.8536425,65.3133091 34.0242124,65.5383841 33.1970363,65.5653932" id="Fill-101" fill="#FFD474"></path>
            </g>
            <path d="M300.302363,377.937753 L157.029591,377.937753 C157.029591,371.858475 161.965601,366.92708 168.053347,366.92708 L289.276352,366.92708 C295.368606,366.92708 300.302363,371.858475 300.302363,377.937753" id="Fill-64" fill="#C1DDF7"></path>
        </g>
    </g>
</svg>